# xmcd
#
# Track frame offsets:
#	150
#	20476
#	39549
#	55587
#	77694
#	94366
#	115245
#	129709
#	150408
#	165385
#
# Disc length: 2495 seconds
#
# Revision: 2
# Processed by: cddbd v1.5.2PL0 Copyright (c) Steve Scherf et al.
# Submitted via: EasyCDDAExtractor 8.2.3.1
#
DISCID=7309bd0a
DTITLE=Various Artist - Blues Hotel
DYEAR=1999
DGENRE=Blues
TTITLE0=Preston Shannon - Round Midnight
TTITLE1=Pat Boyack and The Prowlers - Sneakin' Out
TTITLE2=Bobby Parker - Watch Your Step
TTITLE3=Ron Levy's Wild Kingdom - Why You Stay Out So Late?
TTITLE4=Jordan Patterson - Blues Hotel
TTITLE5=Walter "Wolfman" Washington - At Night In The City
TTITLE6=Charlie Sayles - Kick Your Shoes Off
TTITLE7=James Harman - Do Not Disturb
TTITLE8=Alanda Williams - I Wanna Tell Ya
TTITLE9=Tutu Jones - I'm Not Your Fool
EXTD=
EXTT0=
EXTT1=
EXTT2=
EXTT3=
EXTT4=
EXTT5=
EXTT6=
EXTT7=
EXTT8=
EXTT9=
PLAYORDER=
